<svg width="36" height="36" viewBox="0 0 36 36" fill="none" xmlns="http://www.w3.org/2000/svg">
<g clip-path="url(#clip0_303_24918)">
<path d="M32.9424 19.3636L35.8443 19.8507C35.4712 20.9147 34.8805 21.7266 34.0721 22.2862C33.2706 22.839 32.2653 23.1154 31.0562 23.1154C29.1423 23.1154 27.7259 22.4901 26.807 21.2395C26.0815 20.2376 25.7188 18.9732 25.7188 17.4463C25.7188 15.6222 26.1955 14.1955 27.149 13.166C28.1025 12.1296 29.3081 11.6114 30.766 11.6114C32.4035 11.6114 33.6955 12.1538 34.6421 13.2385C35.5887 14.3164 36.0412 15.9712 35.9998 18.2029H28.7036C28.7243 19.0665 28.9592 19.7402 29.4083 20.2238C29.8574 20.7006 30.4171 20.9389 31.0873 20.9389C31.5433 20.9389 31.9267 20.8146 32.2377 20.5658C32.5486 20.3171 32.7835 19.9164 32.9424 19.3636ZM33.1082 16.4203C33.0875 15.5773 32.8699 14.9382 32.4553 14.5029C32.0407 14.0607 31.5364 13.8396 30.9422 13.8396C30.3065 13.8396 29.7814 14.0711 29.3669 14.534C28.9523 14.9969 28.7485 15.6257 28.7554 16.4203H33.1082Z" fill="#444854"/>
<path d="M7.22366 19.3636L10.1256 19.8507C9.75246 20.9147 9.16172 21.7266 8.35333 22.2862C7.55185 22.839 6.54655 23.1154 5.33742 23.1154C3.42355 23.1154 2.00715 22.4901 1.08821 21.2395C0.362738 20.2376 0 18.9732 0 17.4463C0 15.6222 0.476741 14.1955 1.43022 13.166C2.3837 12.1296 3.58938 11.6114 5.04723 11.6114C6.68474 11.6114 7.97677 12.1538 8.92335 13.2385C9.86992 14.3164 10.3225 15.9712 10.281 18.2029H2.98481C3.00554 19.0665 3.24046 19.7402 3.68956 20.2238C4.13866 20.7006 4.69832 20.9389 5.36852 20.9389C5.82453 20.9389 6.208 20.8146 6.51891 20.5658C6.82983 20.3171 7.06475 19.9164 7.22366 19.3636ZM7.38948 16.4203C7.36876 15.5773 7.15111 14.9382 6.73656 14.5029C6.322 14.0607 5.81762 13.8396 5.22342 13.8396C4.58777 13.8396 4.06266 14.0711 3.6481 14.534C3.23355 14.9969 3.02972 15.6257 3.03663 16.4203H7.38948Z" fill="#444854"/>
<path d="M33.8251 36.364C30.4653 36.5631 28.6409 34.5506 26.7854 32.6407C23.0939 28.8417 20.8866 24.171 18.2186 19.7726C18.0456 19.4863 17.8781 19.1994 17.5696 18.6765C16.0148 21.0799 14.561 23.3146 13.1224 25.5578C12.6713 26.2594 12.2037 26.9632 11.8568 27.7085C11.435 28.6087 10.6914 28.7594 9.81092 28.6426C8.55352 28.4787 8.33336 27.9443 9.01437 26.925C11.2425 23.5914 13.4557 20.2519 15.6717 16.9121C15.882 16.5944 16.1892 16.329 15.8523 15.8876C14.5049 14.1038 13.7772 11.913 11.6957 10.603C10.9876 10.1578 11.2687 9.5715 11.9073 9.13864C13.0846 8.34551 14.5308 8.66141 15.4194 10.017C16.1845 11.1836 17.0325 12.2773 18.1106 13.3904C19.5472 11.3006 20.9386 9.27107 22.3389 7.24558C22.7649 6.63015 23.1962 6.01147 23.6715 5.42857C23.9975 5.03101 24.3204 4.46267 24.9847 4.66453C25.6667 4.8719 26.1781 5.33738 26.2241 6.06026C26.3204 7.58068 25.5881 8.91013 24.7153 10.0918C24.1043 10.9205 24.0385 10.112 24.0985 9.55176C22.5457 11.0238 21.4504 12.6207 20.2559 14.1475C19.5098 15.1001 19.3864 15.9849 20.1161 17.0758C22.8344 21.1357 24.7868 25.6215 27.8845 29.4741C29.7397 31.7808 32.057 33.7425 33.8217 36.3592L33.8251 36.364Z" fill="#FD0000"/>
<path fill-rule="evenodd" clip-rule="evenodd" d="M35 36.9177L33.8596 36.9852C30.3169 37.1952 28.3146 35.1262 26.5493 33.3021C26.4742 33.2245 26.3996 33.1474 26.3253 33.071C23.4491 30.111 21.4435 26.6118 19.4839 23.1929C18.8837 22.1457 18.2878 21.1061 17.6726 20.0917C17.6294 20.0203 17.586 19.9478 17.5413 19.8728C17.2865 20.2661 17.0344 20.6553 16.7844 21.0412C15.7117 22.6968 14.6788 24.291 13.6532 25.8901C13.6115 25.955 13.5696 26.02 13.5284 26.084C13.1136 26.7275 12.7233 27.333 12.4277 27.9679L12.4271 27.9692C12.1567 28.5464 11.7524 28.9344 11.2345 29.1358C10.7417 29.3275 10.2116 29.3242 9.72377 29.2595C9.37547 29.2141 9.05247 29.1379 8.78135 29.0086C8.50437 28.8765 8.24636 28.671 8.10479 28.3574C7.96381 28.0451 7.98115 27.7205 8.06246 27.4332C8.14243 27.1507 8.29431 26.8652 8.48295 26.5828C10.4458 23.6461 12.3972 20.7047 14.3498 17.7615C14.6129 17.3649 14.876 16.9683 15.1392 16.5716C15.173 16.5207 15.207 16.4732 15.2355 16.4339C15.2417 16.4252 15.2476 16.4171 15.2533 16.4093C15.2754 16.3787 15.2933 16.354 15.3109 16.3287C15.3282 16.3038 15.3407 16.2845 15.3497 16.2697C15.3478 16.2671 15.3458 16.2644 15.3436 16.2616L15.3417 16.259C14.9855 15.7874 14.6743 15.2944 14.3816 14.8136C14.3034 14.6852 14.227 14.5585 14.1515 14.4331C13.9395 14.0814 13.7341 13.7407 13.5143 13.4044C12.9251 12.5025 12.2819 11.7128 11.3521 11.1276M11.8533 27.7085C11.4315 28.6086 10.6879 28.7594 9.80743 28.6426C8.55003 28.4786 8.32986 27.9443 9.01088 26.925C10.9744 23.9872 12.9264 21.0449 14.879 18.1018C15.142 17.7052 15.4051 17.3087 15.6683 16.9121C15.6995 16.8649 15.7329 16.8188 15.766 16.7731C15.9556 16.5116 16.1356 16.2633 15.8488 15.8876C15.4249 15.3264 15.0624 14.7251 14.6998 14.1235C13.9096 12.8126 13.1189 11.5009 11.6922 10.603C10.9841 10.1578 11.2652 9.57147 11.9038 9.13862C13.0811 8.34549 14.5273 8.66139 15.4159 10.0169C16.0735 11.0197 16.7923 11.9685 17.6659 12.9221C17.8087 13.078 17.9556 13.234 18.1071 13.3904C18.2283 13.2141 18.3492 13.0381 18.4698 12.8626C18.7024 12.5242 18.9338 12.1873 19.1644 11.8517C20.2318 10.298 21.281 8.77063 22.3354 7.24556C22.7614 6.63013 23.1927 6.01144 23.668 5.42854C23.7092 5.37835 23.7503 5.32543 23.792 5.27168C24.081 4.89974 24.4007 4.48813 24.9812 4.66451C25.6632 4.87188 26.1746 5.33736 26.2206 6.06024C26.3164 7.57341 25.5916 8.89743 24.7243 10.0748L24.723 10.0767C24.7193 10.0817 24.7156 10.0867 24.7118 10.0918C24.4189 10.4891 24.2512 10.5101 24.1627 10.3624C24.1009 10.2592 24.0776 10.0737 24.0773 9.87683L24.0773 9.8734C24.0772 9.76559 24.084 9.65449 24.095 9.55174C23.8757 9.75967 23.6654 9.9701 23.4628 10.1825C22.5412 11.1482 21.776 12.1541 21.0195 13.1484C20.7647 13.4834 20.5109 13.8171 20.2524 14.1475C19.5063 15.1 19.3829 15.9849 20.1126 17.0757C21.2028 18.704 22.1698 20.4008 23.1369 22.0978C24.5812 24.632 26.0257 27.1666 27.881 29.474C28.6273 30.402 29.4484 31.2741 30.2782 32.1554C31.3494 33.2932 32.4352 34.4464 33.3933 35.7552C33.538 35.9528 33.6798 36.154 33.8182 36.3592L33.8216 36.364C33.8179 36.3642 33.8142 36.3644 33.8105 36.3646V36.3646C33.5524 36.3795 33.3028 36.3814 33.0621 36.3713C30.2841 36.254 28.6196 34.5366 26.9728 32.8375C26.9092 32.7718 26.8455 32.7062 26.7819 32.6407C23.9659 29.7427 22.0136 26.3373 20.0615 22.9326C19.4547 21.8741 18.8479 20.8157 18.2151 19.7726C18.1236 19.621 18.0335 19.4693 17.9233 19.2826C17.879 19.2074 17.8313 19.1265 17.779 19.0376C17.7157 18.9302 17.6456 18.8112 17.5661 18.6765C17.438 18.8745 17.3105 19.0715 17.1837 19.2674C16.8695 19.7527 16.5593 20.2315 16.2522 20.7055C15.1793 22.3615 14.1452 23.9575 13.1189 25.5578C13.0768 25.6233 13.0345 25.6888 12.9922 25.7544C12.5816 26.3912 12.1678 27.0328 11.8533 27.7085ZM35 36.9177L34.3386 36.006ZM34.3386 36.006C33.4289 34.6587 32.3827 33.4873 31.3489 32.3792C31.1427 32.1583 30.9376 31.9404 30.7341 31.7243C29.906 30.8446 29.106 29.9947 28.3764 29.0876C26.8595 27.2011 25.6167 25.1515 24.4043 23.0457C24.1669 22.6334 23.9304 22.2183 23.6931 21.8019C22.725 20.1031 21.7441 18.3818 20.6402 16.7331V16.7331M23.7242 10.8203C23.7797 10.8803 23.8504 10.9386 23.9402 10.9847C24.1563 11.0956 24.3819 11.0851 24.5614 11.0221C24.7225 10.9655 24.8492 10.8679 24.942 10.7814C25.0394 10.6905 25.1326 10.5804 25.2229 10.4579M18.031 12.3907C18.235 12.0939 18.4382 11.7981 18.6407 11.5033C19.7082 9.94948 20.7581 8.42111 21.813 6.89527C22.2378 6.28162 22.6823 5.64333 23.1753 5.03881L23.1764 5.0375C23.1977 5.01152 23.2243 4.97704 23.2555 4.93673C23.3808 4.77455 23.5789 4.51808 23.795 4.34209C23.9491 4.21661 24.1459 4.09755 24.3911 4.03834C24.6412 3.97792 24.9027 3.98929 25.1675 4.06977C26.0174 4.32821 26.7841 4.96422 26.8513 6.02133C26.9618 7.76629 26.1173 9.24692 25.2229 10.4579M18.031 12.3907C17.2289 11.5026 16.5614 10.6165 15.9468 9.67937ZM11.5455 8.62592L11.547 8.6249C12.2736 8.13542 13.1123 7.97333 13.9183 8.16744C14.7196 8.36044 15.4297 8.89056 15.9468 9.67937M11.5455 8.62592C11.1812 8.87287 10.7938 9.24099 10.678 9.72281ZM10.678 9.72281C10.6152 9.98431 10.638 10.2632 10.7717 10.526ZM10.7717 10.526C10.9001 10.7784 11.1096 10.975 11.3521 11.1276Z" fill="#FD0000"/>
</g>
<defs>
<clipPath id="clip0_303_24918">
<rect width="36" height="36" fill="white"/>
</clipPath>
</defs>
</svg>
