<svg width="19" height="16" viewBox="0 0 19 16" fill="none" xmlns="http://www.w3.org/2000/svg">
<path d="M17.2512 15.6946C15.6468 15.7912 14.7757 14.8154 13.8897 13.8894C12.1269 12.0475 11.0729 9.78286 9.79893 7.6503C9.71632 7.51151 9.63635 7.37238 9.48904 7.11886C8.7466 8.28416 8.0524 9.36767 7.36544 10.4552C7.15005 10.7954 6.92676 11.1367 6.76108 11.498C6.55969 11.9345 6.2046 12.0076 5.78418 11.9509C5.18376 11.8714 5.07863 11.6124 5.40382 11.1181C6.46775 9.50185 7.52461 7.88272 8.58278 6.26342C8.68319 6.10937 8.82985 5.98067 8.66897 5.76667C8.02561 4.9018 7.6781 3.83959 6.68416 3.20443C6.34604 2.98858 6.48029 2.70432 6.78522 2.49445C7.34741 2.10991 8.03796 2.26307 8.46228 2.92031C8.82762 3.48596 9.23256 4.01622 9.74735 4.55593C10.4334 3.54267 11.0977 2.55866 11.7664 1.57661C11.9698 1.27822 12.1758 0.978248 12.4027 0.69563C12.5584 0.502874 12.7126 0.227316 13.0298 0.325189C13.3554 0.425731 13.5997 0.651418 13.6216 1.00191C13.6676 1.73908 13.3179 2.38366 12.9012 2.95658C12.6094 3.35838 12.578 2.96638 12.6066 2.69476C11.8651 3.40847 11.3421 4.18274 10.7717 4.92299C10.4155 5.38484 10.3566 5.81387 10.705 6.34275C12.003 8.31119 12.9353 10.4862 14.4145 12.3541C15.3004 13.4725 16.4069 14.4236 17.2495 15.6923L17.2512 15.6946Z" fill="#FD0000"/>
<path fill-rule="evenodd" clip-rule="evenodd" d="M17.813 15.963L17.2684 15.9958C15.5768 16.0976 14.6206 15.0944 13.7777 14.21C13.7418 14.1724 13.7062 14.135 13.6707 14.0979C12.2973 12.6628 11.3396 10.9662 10.4039 9.30858C10.1173 8.80085 9.83276 8.29677 9.53897 7.80499C9.51835 7.77035 9.49761 7.73522 9.47626 7.69881C9.35462 7.88953 9.23422 8.07823 9.11484 8.26531C8.60262 9.06804 8.1094 9.84101 7.61967 10.6163C7.59977 10.6478 7.57977 10.6793 7.56006 10.7103C7.36201 11.0223 7.17564 11.3159 7.03449 11.6237L7.03419 11.6244C6.90506 11.9042 6.71201 12.0923 6.46471 12.19C6.2294 12.2829 5.97628 12.2813 5.74333 12.25C5.57701 12.2279 5.42277 12.191 5.29331 12.1283C5.16105 12.0643 5.03785 11.9646 4.97025 11.8126C4.90293 11.6612 4.91121 11.5038 4.95004 11.3645C4.98823 11.2275 5.06075 11.0891 5.15082 10.9522C6.08811 9.5283 7.01993 8.10216 7.9523 6.67518C8.07794 6.48289 8.20359 6.29058 8.32926 6.09827C8.34537 6.07357 8.36163 6.05055 8.37522 6.03147C8.3782 6.02728 8.38103 6.02333 8.38372 6.01956C8.39429 6.00474 8.40284 5.99277 8.41125 5.98047C8.41951 5.96839 8.42548 5.95905 8.42977 5.95189C8.42887 5.95063 8.4279 5.94931 8.42686 5.94793L8.42594 5.94671C8.25584 5.71803 8.10725 5.47899 7.96749 5.24588C7.93016 5.18362 7.89368 5.12219 7.85761 5.06143C7.75638 4.89091 7.6583 4.7257 7.55336 4.56264C7.27198 4.12536 6.96487 3.74247 6.52087 3.45872M6.76018 11.4979C6.55879 11.9344 6.2037 12.0075 5.78327 11.9509C5.18286 11.8714 5.07772 11.6123 5.40292 11.1181C6.34052 9.69369 7.27263 8.26711 8.20498 6.84015C8.33061 6.64789 8.45623 6.45562 8.58188 6.26335C8.59681 6.24044 8.61276 6.2181 8.62857 6.19595C8.7191 6.06914 8.80503 5.94878 8.66807 5.76659C8.46569 5.49454 8.29259 5.20296 8.11944 4.91129C7.74212 4.27573 7.36455 3.63972 6.68326 3.20436C6.34514 2.98851 6.47939 2.70425 6.78431 2.49438C7.34651 2.10983 8.03706 2.263 8.46138 2.92024C8.77539 3.40641 9.11864 3.86643 9.53575 4.32878C9.60394 4.40437 9.67411 4.48002 9.74644 4.55586C9.80433 4.47035 9.86207 4.38506 9.91966 4.29996C10.0307 4.1359 10.1412 3.97255 10.2513 3.8098C10.761 3.0565 11.262 2.31596 11.7655 1.57653C11.9689 1.27815 12.1749 0.978175 12.4018 0.695557C12.4215 0.671219 12.4411 0.645561 12.4611 0.619502C12.599 0.439169 12.7517 0.2396 13.0289 0.325116C13.3545 0.425658 13.5988 0.651345 13.6207 1.00183C13.6665 1.73549 13.3204 2.37744 12.9062 2.94831C12.906 2.94861 12.9058 2.9489 12.9056 2.9492C12.9038 2.95164 12.9021 2.95407 12.9003 2.95651C12.7604 3.14918 12.6803 3.15932 12.6381 3.08774C12.6085 3.03771 12.5974 2.94776 12.5973 2.8523C12.5973 2.85175 12.5973 2.85119 12.5973 2.85064C12.5972 2.79837 12.6005 2.7445 12.6057 2.69468C12.501 2.7955 12.4006 2.89752 12.3038 3.00049C11.8638 3.46872 11.4984 3.95642 11.1372 4.43854C11.0155 4.60095 10.8943 4.76273 10.7708 4.92292C10.4146 5.38476 10.3557 5.81379 10.7041 6.34268C11.2247 7.13214 11.6864 7.95483 12.1482 8.7776C12.8379 10.0063 13.5276 11.2352 14.4136 12.354C14.7699 12.8039 15.162 13.2267 15.5583 13.6541C16.0698 14.2057 16.5882 14.7648 17.0458 15.3994C17.1148 15.4952 17.1826 15.5928 17.2486 15.6922L17.2503 15.6945C17.2485 15.6947 17.2467 15.6948 17.245 15.6949C17.2451 15.6949 17.2449 15.6949 17.245 15.6949C17.1217 15.7021 17.0025 15.703 16.8876 15.6981C15.5611 15.6412 14.7663 14.8086 13.9799 13.9847C13.9495 13.9529 13.9191 13.9211 13.8887 13.8893C12.5441 12.4842 11.6118 10.8332 10.6797 9.18238C10.3899 8.66917 10.1002 8.15598 9.79803 7.65023C9.75431 7.57677 9.71132 7.50322 9.6587 7.41266C9.63751 7.37619 9.61476 7.33697 9.58977 7.29389C9.55956 7.24181 9.52608 7.18409 9.48814 7.11879C9.42695 7.21483 9.36608 7.31031 9.30553 7.40529C9.1555 7.64059 9.00735 7.87277 8.86072 8.10257C8.34838 8.90548 7.85462 9.67929 7.36454 10.4552C7.34443 10.4869 7.32425 10.5187 7.30405 10.5505C7.10795 10.8593 6.91039 11.1704 6.76018 11.4979ZM17.813 15.963L17.4971 15.521ZM17.4971 15.521C17.0628 14.8678 16.5632 14.2998 16.0695 13.7626C15.9711 13.6554 15.8731 13.5498 15.776 13.445C15.3805 13.0185 14.9985 12.6064 14.6502 12.1666C13.9258 11.2519 13.3324 10.2582 12.7534 9.23719C12.6401 9.03729 12.5271 8.83605 12.4138 8.63416C11.9516 7.81052 11.4832 6.97594 10.956 6.17656C10.9561 6.17659 10.956 6.17652 10.956 6.17656M12.4287 3.30973C12.4552 3.33882 12.489 3.3671 12.5318 3.38945C12.635 3.44323 12.7427 3.43811 12.8284 3.40757C12.9053 3.38016 12.9659 3.33283 13.0102 3.29086C13.0567 3.24682 13.1012 3.19342 13.1443 3.13402M9.71012 4.07116C9.80751 3.92724 9.90454 3.78384 10.0013 3.64089C10.511 2.88753 11.0123 2.1465 11.516 1.4067C11.7189 1.10917 11.9312 0.799696 12.1666 0.506594L12.1671 0.50596C12.1772 0.493365 12.19 0.476645 12.2048 0.4571C12.2647 0.378467 12.3593 0.254118 12.4625 0.168791C12.5361 0.107951 12.63 0.0502282 12.7471 0.0215168C12.8665 -0.00777494 12.9914 -0.00226284 13.1179 0.0367581C13.5237 0.162062 13.8898 0.470432 13.9219 0.982969C13.9747 1.82901 13.5714 2.54689 13.1443 3.13402M9.71012 4.07116C9.32712 3.64056 9.00838 3.21093 8.7149 2.75656ZM6.61323 2.2458L6.61394 2.2453C6.9609 2.00798 7.3614 1.92939 7.74624 2.02351C8.12887 2.11708 8.46798 2.37411 8.7149 2.75656M6.61323 2.2458C6.43926 2.36553 6.25428 2.54401 6.19899 2.77763ZM6.19899 2.77763C6.16898 2.90441 6.1799 3.03964 6.24371 3.16703ZM6.24371 3.16703C6.30502 3.28942 6.40507 3.38477 6.52087 3.45872Z" fill="#FD0000"/>
<path d="M17.43 7.86484L18.9153 8.11415C18.7244 8.65875 18.422 9.07427 18.0082 9.36072C17.598 9.64362 17.0835 9.78508 16.4646 9.78508C15.485 9.78508 14.7601 9.46504 14.2898 8.82496C13.9184 8.31219 13.7328 7.66503 13.7328 6.8835C13.7328 5.9499 13.9768 5.21964 14.4648 4.69272C14.9528 4.16227 15.5699 3.89704 16.3161 3.89704C17.1542 3.89704 17.8155 4.17465 18.3 4.72985C18.7845 5.28153 19.0161 6.12848 18.9949 7.27073H15.2605C15.2711 7.71277 15.3913 8.05757 15.6212 8.30511C15.8511 8.54912 16.1375 8.67113 16.4805 8.67113C16.7139 8.67113 16.9102 8.60747 17.0693 8.48016C17.2285 8.35285 17.3487 8.14775 17.43 7.86484ZM17.5149 6.35835C17.5043 5.92691 17.3929 5.5998 17.1807 5.37701C16.9685 5.15068 16.7104 5.03752 16.4063 5.03752C16.0809 5.03752 15.8122 5.15599 15.6 5.39292C15.3878 5.62986 15.2835 5.95167 15.287 6.35835H17.5149Z" fill="#444854"/>
<path d="M4.26758 7.86484L5.75285 8.11415C5.56188 8.65875 5.25952 9.07427 4.84577 9.36072C4.43555 9.64362 3.92101 9.78508 3.30215 9.78508C2.32258 9.78508 1.59762 9.46504 1.12729 8.82496C0.755971 8.31219 0.570312 7.66503 0.570312 6.8835C0.570312 5.9499 0.814321 5.21964 1.30234 4.69272C1.79036 4.16227 2.40745 3.89704 3.15362 3.89704C3.99174 3.89704 4.65304 4.17465 5.13752 4.72985C5.622 5.28153 5.85363 6.12848 5.83241 7.27073H2.09802C2.10863 7.71277 2.22886 8.05757 2.45873 8.30511C2.68859 8.54912 2.97504 8.67113 3.31806 8.67113C3.55146 8.67113 3.74773 8.60747 3.90687 8.48016C4.066 8.35285 4.18624 8.14775 4.26758 7.86484ZM4.35245 6.35835C4.34184 5.92691 4.23044 5.5998 4.01826 5.37701C3.80608 5.15068 3.54793 5.03752 3.2438 5.03752C2.91845 5.03752 2.64969 5.15599 2.43751 5.39292C2.22533 5.62986 2.12101 5.95167 2.12454 6.35835H4.35245Z" fill="#444854"/>
</svg>
